<svg xmlns="http://www.w3.org/2000/svg" viewBox="0 0 980 426" width="980" height="426" font-family="Segoe UI, Roboto, Helvetica, Arial, sans-serif">
<rect width="980" height="426" fill="#ffffff"/>
<text x="490" y="34" text-anchor="middle" font-size="20" font-weight="700" fill="#111">hc165 — Registre d&apos;entrée 74HC165</text>
<text x="151" y="82" text-anchor="middle" font-size="16" font-weight="700" fill="#111">ESP32 DevKit V1 (WROOM-32)</text>
<rect x="36" y="96" width="230" height="222" rx="8" fill="#0d6ea8" stroke="#0a3d5c" stroke-width="2"/>
<text x="248" y="127" text-anchor="end" font-size="14" font-weight="700" fill="#fff">10 kΩ vers GND + bouton vers 3V3</text>
<text x="248" y="159" text-anchor="end" font-size="14" font-weight="700" fill="#fff">3V3</text>
<text x="248" y="191" text-anchor="end" font-size="14" font-weight="700" fill="#fff">GND</text>
<text x="248" y="223" text-anchor="end" font-size="14" font-weight="700" fill="#fff">GPIO4</text>
<text x="248" y="255" text-anchor="end" font-size="14" font-weight="700" fill="#fff">GPIO13</text>
<text x="248" y="287" text-anchor="end" font-size="14" font-weight="700" fill="#fff">GPIO34</text>
<path d="M266 154 H306 V126 H600" fill="none" stroke="#e53935" stroke-width="3" stroke-linejoin="round"><title>3V3 → Registre d&apos;entrée 74HC165 VCC</title></path>
<path d="M266 186 H326 V158 H600" fill="none" stroke="#212121" stroke-width="3" stroke-linejoin="round"><title>GND → Registre d&apos;entrée 74HC165 GND</title></path>
<path d="M266 218 H346 V190 H600" fill="none" stroke="#1e88e5" stroke-width="3" stroke-linejoin="round"><title>GPIO4 → Registre d&apos;entrée 74HC165 PL (1)</title></path>
<path d="M266 250 H366 V222 H600" fill="none" stroke="#43a047" stroke-width="3" stroke-linejoin="round"><title>GPIO13 → Registre d&apos;entrée 74HC165 CP (2)</title></path>
<path d="M266 282 H386 V254 H600" fill="none" stroke="#8e24aa" stroke-width="3" stroke-linejoin="round"><title>GPIO34 → Registre d&apos;entrée 74HC165 Q7 (9)</title></path>
<path d="M266 186 H406 V286 H600" fill="none" stroke="#212121" stroke-width="3" stroke-linejoin="round"><title>GND → Registre d&apos;entrée 74HC165 CE (15)</title></path>
<path d="M266 122 H426 V318 H600" fill="none" stroke="#212121" stroke-width="3" stroke-linejoin="round"><title>10 kΩ vers GND + bouton vers 3V3 → Registre d&apos;entrée 74HC165 entrées D0-D7</title></path>
<circle cx="266" cy="122" r="6" fill="#fff" stroke="#111" stroke-width="1.5"/>
<circle cx="266" cy="154" r="6" fill="#fff" stroke="#111" stroke-width="1.5"/>
<circle cx="266" cy="186" r="6" fill="#fff" stroke="#111" stroke-width="1.5"/>
<circle cx="266" cy="218" r="6" fill="#fff" stroke="#111" stroke-width="1.5"/>
<circle cx="266" cy="250" r="6" fill="#fff" stroke="#111" stroke-width="1.5"/>
<circle cx="266" cy="282" r="6" fill="#fff" stroke="#111" stroke-width="1.5"/>
<text x="772" y="90" text-anchor="middle" font-size="13" font-weight="700" fill="#111">Registre d&apos;entrée 74HC165 (sr165)</text>
<rect x="600" y="96" width="344" height="246" rx="6" fill="#f3f0e6" stroke="#111" stroke-width="1.5"/>
<rect x="594" y="120" width="12" height="12" fill="#e53935"/>
<text x="616" y="131" font-size="13" fill="#111">VCC</text>
<rect x="594" y="152" width="12" height="12" fill="#212121"/>
<text x="616" y="163" font-size="13" fill="#111">GND</text>
<rect x="594" y="184" width="12" height="12" fill="#1e88e5"/>
<text x="616" y="195" font-size="13" fill="#111">PL (1)</text>
<rect x="594" y="216" width="12" height="12" fill="#43a047"/>
<text x="616" y="227" font-size="13" fill="#111">CP (2)</text>
<rect x="594" y="248" width="12" height="12" fill="#8e24aa"/>
<text x="616" y="259" font-size="13" fill="#111">Q7 (9)</text>
<rect x="594" y="280" width="12" height="12" fill="#212121"/>
<text x="616" y="291" font-size="13" fill="#111">CE (15)</text>
<rect x="594" y="312" width="12" height="12" fill="#212121"/>
<text x="616" y="323" font-size="13" fill="#111">entrées D0-D7</text>
<text x="36" y="404" font-size="12" fill="#777">ESP32 LAB 6.1.0 — fils : rouge = 3V3, orange = 5V, noir = GND, couleurs = signaux. Toujours câbler carte débranchée.</text>
</svg>
