<svg xmlns="http://www.w3.org/2000/svg" viewBox="0 0 980 730" width="980" height="730" font-family="Segoe UI, Roboto, Helvetica, Arial, sans-serif">
<rect width="980" height="730" fill="#ffffff"/>
<text x="490" y="34" text-anchor="middle" font-size="20" font-weight="700" fill="#111">app_alarme_intrusion — Alarme anti-intrusion</text>
<text x="151" y="82" text-anchor="middle" font-size="16" font-weight="700" fill="#111">ESP32 DevKit V1 (WROOM-32)</text>
<rect x="36" y="96" width="230" height="254" rx="8" fill="#0d6ea8" stroke="#0a3d5c" stroke-width="2"/>
<text x="248" y="127" text-anchor="end" font-size="14" font-weight="700" fill="#fff">3V3</text>
<text x="248" y="159" text-anchor="end" font-size="14" font-weight="700" fill="#fff">5V</text>
<text x="248" y="191" text-anchor="end" font-size="14" font-weight="700" fill="#fff">GND</text>
<text x="248" y="223" text-anchor="end" font-size="14" font-weight="700" fill="#fff">GPIO4</text>
<text x="248" y="255" text-anchor="end" font-size="14" font-weight="700" fill="#fff">GPIO13</text>
<text x="248" y="287" text-anchor="end" font-size="14" font-weight="700" fill="#fff">GPIO14</text>
<text x="248" y="319" text-anchor="end" font-size="14" font-weight="700" fill="#fff">GPIO34</text>
<path d="M266 154 H306 V126 H600" fill="none" stroke="#fb8c00" stroke-width="3" stroke-linejoin="round"><title>5V (VIN) → HC-SR501 (PIR infrarouge passif) VCC</title></path>
<path d="M266 186 H326 V158 H600" fill="none" stroke="#212121" stroke-width="3" stroke-linejoin="round"><title>GND → HC-SR501 (PIR infrarouge passif) GND</title></path>
<path d="M266 314 H346 V190 H600" fill="none" stroke="#546e7a" stroke-width="3" stroke-linejoin="round"><title>GPIO34 → HC-SR501 (PIR infrarouge passif) OUT</title></path>
<path d="M266 122 H366 V270 H600" fill="none" stroke="#e53935" stroke-width="3" stroke-linejoin="round"><title>3V3 → Contact reed (ILS) VCC</title></path>
<path d="M266 186 H386 V302 H600" fill="none" stroke="#212121" stroke-width="3" stroke-linejoin="round"><title>GND → Contact reed (ILS) GND</title></path>
<path d="M266 218 H406 V334 H600" fill="none" stroke="#1e88e5" stroke-width="3" stroke-linejoin="round"><title>GPIO4 → Contact reed (ILS) signal — l&apos;autre borne vers GND</title></path>
<path d="M266 122 H426 V414 H600" fill="none" stroke="#e53935" stroke-width="3" stroke-linejoin="round"><title>3V3 → Buzzer actif 5 V VCC</title></path>
<path d="M266 186 H446 V446 H600" fill="none" stroke="#212121" stroke-width="3" stroke-linejoin="round"><title>GND → Buzzer actif 5 V GND</title></path>
<path d="M266 250 H466 V478 H600" fill="none" stroke="#43a047" stroke-width="3" stroke-linejoin="round"><title>GPIO13 → Buzzer actif 5 V + (via transistor si &gt; 20 mA)</title></path>
<path d="M266 122 H486 V558 H600" fill="none" stroke="#e53935" stroke-width="3" stroke-linejoin="round"><title>3V3 → LED + résistance 220 Ω VCC</title></path>
<path d="M266 186 H506 V590 H600" fill="none" stroke="#212121" stroke-width="3" stroke-linejoin="round"><title>GND → LED + résistance 220 Ω GND</title></path>
<path d="M266 282 H526 V622 H600" fill="none" stroke="#8e24aa" stroke-width="3" stroke-linejoin="round"><title>GPIO14 → LED + résistance 220 Ω anode (+) via 220 Ω — cathode (patte courte) vers GND</title></path>
<circle cx="266" cy="122" r="6" fill="#fff" stroke="#111" stroke-width="1.5"/>
<circle cx="266" cy="154" r="6" fill="#fff" stroke="#111" stroke-width="1.5"/>
<circle cx="266" cy="186" r="6" fill="#fff" stroke="#111" stroke-width="1.5"/>
<circle cx="266" cy="218" r="6" fill="#fff" stroke="#111" stroke-width="1.5"/>
<circle cx="266" cy="250" r="6" fill="#fff" stroke="#111" stroke-width="1.5"/>
<circle cx="266" cy="282" r="6" fill="#fff" stroke="#111" stroke-width="1.5"/>
<circle cx="266" cy="314" r="6" fill="#fff" stroke="#111" stroke-width="1.5"/>
<text x="772" y="90" text-anchor="middle" font-size="13" font-weight="700" fill="#111">HC-SR501 (PIR infrarouge passif) (pir_hcsr501)</text>
<rect x="600" y="96" width="344" height="118" rx="6" fill="#f3f0e6" stroke="#111" stroke-width="1.5"/>
<rect x="594" y="120" width="12" height="12" fill="#fb8c00"/>
<text x="616" y="131" font-size="13" fill="#111">VCC</text>
<rect x="594" y="152" width="12" height="12" fill="#212121"/>
<text x="616" y="163" font-size="13" fill="#111">GND</text>
<rect x="594" y="184" width="12" height="12" fill="#546e7a"/>
<text x="616" y="195" font-size="13" fill="#111">OUT</text>
<text x="772" y="234" text-anchor="middle" font-size="13" font-weight="700" fill="#111">Contact reed (ILS) (porte)</text>
<rect x="600" y="240" width="344" height="118" rx="6" fill="#f3f0e6" stroke="#111" stroke-width="1.5"/>
<rect x="594" y="264" width="12" height="12" fill="#e53935"/>
<text x="616" y="275" font-size="13" fill="#111">VCC</text>
<rect x="594" y="296" width="12" height="12" fill="#212121"/>
<text x="616" y="307" font-size="13" fill="#111">GND</text>
<rect x="594" y="328" width="12" height="12" fill="#1e88e5"/>
<text x="616" y="339" font-size="13" fill="#111">signal</text>
<text x="934" y="339" text-anchor="end" font-size="10.5" fill="#666">l&apos;autre borne vers GND</text>
<text x="772" y="378" text-anchor="middle" font-size="13" font-weight="700" fill="#111">Buzzer actif 5 V (sirene)</text>
<rect x="600" y="384" width="344" height="118" rx="6" fill="#f3f0e6" stroke="#111" stroke-width="1.5"/>
<rect x="594" y="408" width="12" height="12" fill="#e53935"/>
<text x="616" y="419" font-size="13" fill="#111">VCC</text>
<rect x="594" y="440" width="12" height="12" fill="#212121"/>
<text x="616" y="451" font-size="13" fill="#111">GND</text>
<rect x="594" y="472" width="12" height="12" fill="#43a047"/>
<text x="616" y="483" font-size="13" fill="#111">+ (via transistor si &gt; 20 mA)</text>
<text x="772" y="522" text-anchor="middle" font-size="13" font-weight="700" fill="#111">LED + résistance 220 Ω (voyant)</text>
<rect x="600" y="528" width="344" height="118" rx="6" fill="#f3f0e6" stroke="#111" stroke-width="1.5"/>
<rect x="594" y="552" width="12" height="12" fill="#e53935"/>
<text x="616" y="563" font-size="13" fill="#111">VCC</text>
<rect x="594" y="584" width="12" height="12" fill="#212121"/>
<text x="616" y="595" font-size="13" fill="#111">GND</text>
<rect x="594" y="616" width="12" height="12" fill="#8e24aa"/>
<text x="616" y="627" font-size="13" fill="#111">anode (+) via 220 Ω</text>
<text x="934" y="627" text-anchor="end" font-size="10.5" fill="#666">cathode (patte courte) vers GND</text>
<text x="36" y="708" font-size="12" fill="#777">ESP32 LAB 6.1.0 — fils : rouge = 3V3, orange = 5V, noir = GND, couleurs = signaux. Toujours câbler carte débranchée.</text>
</svg>
